<svg width="400" height="448" viewBox="0 0 400 448" fill="none" xmlns="http://www.w3.org/2000/svg">
<path d="M398.13 331.781C398.13 334.171 396.95 336.571 394.58 337.931L209.54 444.771C203.68 448.151 196.45 448.151 190.59 444.771L5.54993 337.931C3.17993 336.571 2 334.171 2 331.781C2 329.391 3.17993 326.991 5.54993 325.621L190.59 218.781C196.45 215.401 203.68 215.401 209.54 218.781L394.58 325.621C396.95 326.991 398.13 329.391 398.13 331.781Z" fill="#E0E8F7"/>
<path d="M398.13 120.58C398.13 122.97 396.95 125.37 394.58 126.73L209.54 233.57C203.68 236.95 196.45 236.95 190.59 233.57L5.54993 126.73C3.17993 125.37 2 122.97 2 120.58C2 118.19 3.17993 115.79 5.54993 114.42L190.59 7.57992C196.45 4.19992 203.68 4.19992 209.54 7.57992L394.58 114.42C396.95 115.79 398.13 118.19 398.13 120.58Z" fill="white" stroke="#223893" stroke-width="1.2" stroke-linecap="round" stroke-linejoin="round"/>
<path d="M338.429 120.581C338.429 122.251 337.599 123.921 335.939 124.871L301.05 145.021L287.78 152.681L206.679 199.511C202.579 201.871 197.529 201.871 193.439 199.511L112.33 152.681L99.0596 145.021L64.1694 124.871C62.5194 123.921 61.6895 122.251 61.6895 120.581C61.6895 118.911 62.5194 117.231 64.1694 116.271L193.439 41.6411C197.529 39.2811 202.579 39.2811 206.679 41.6411L335.939 116.271C337.599 117.231 338.429 118.911 338.429 120.581Z" fill="#80C0FF" stroke="#223893" stroke-width="1.2" stroke-linecap="round" stroke-linejoin="round"/>
<path d="M301.051 145.02L287.781 152.68L206.68 199.51C202.58 201.87 197.53 201.87 193.44 199.51L112.331 152.68L99.0605 145.02L193.44 90.5298C197.53 88.1698 202.58 88.1698 206.68 90.5298L301.051 145.02Z" fill="#3D93FA" stroke="#223893" stroke-width="1.2" stroke-linecap="round" stroke-linejoin="round"/>
<path d="M137.82 145.23C139.47 146.18 139.47 147.72 137.82 148.68C136.17 149.64 133.5 149.63 131.85 148.68C130.2 147.73 130.2 146.19 131.85 145.23C133.5 144.28 136.17 144.28 137.82 145.23Z" fill="#223893"/>
<path d="M153 136.47C154.65 137.42 154.65 138.96 153 139.92C151.35 140.87 148.68 140.87 147.03 139.92C145.38 138.97 145.38 137.43 147.03 136.47C148.68 135.52 151.35 135.52 153 136.47Z" fill="#223893"/>
<path d="M153 154C154.65 154.95 154.65 156.49 153 157.45C151.35 158.4 148.68 158.4 147.03 157.45C145.38 156.5 145.38 154.96 147.03 154C148.68 153.05 151.35 153.05 153 154Z" fill="#223893"/>
<path d="M244.091 136.47C245.741 137.42 245.741 138.96 244.091 139.92C242.441 140.87 239.77 140.87 238.12 139.92C236.47 138.97 236.47 137.43 238.12 136.47C239.77 135.52 242.441 135.52 244.091 136.47Z" fill="#223893"/>
<path d="M244.091 154C245.741 154.95 245.741 156.49 244.091 157.45C242.441 158.4 239.77 158.4 238.12 157.45C236.47 156.5 236.47 154.96 238.12 154C239.77 153.05 242.441 153.05 244.091 154Z" fill="#223893"/>
<path d="M259.27 145.23C260.92 146.18 260.92 147.72 259.27 148.68C257.62 149.63 254.95 149.63 253.3 148.68C251.65 147.73 251.65 146.19 253.3 145.23C254.95 144.28 257.62 144.28 259.27 145.23Z" fill="#223893"/>
<path d="M398.13 120.58V308C398.13 310.39 396.95 312.79 394.58 314.16L209.54 420.99C203.68 424.38 196.45 424.38 190.59 420.99L5.54993 314.16C3.17993 312.79 2 310.39 2 308V120.58C2 122.97 3.17993 125.37 5.54993 126.73L190.59 233.57C196.45 236.95 203.68 236.95 209.54 233.57L394.58 126.73C396.95 125.37 398.13 122.97 398.13 120.58Z" fill="#E0E8F7" stroke="#223893" stroke-width="1.2" stroke-miterlimit="10" stroke-linecap="round"/>
<path d="M22.4697 195.74C22.4697 202.03 23.8698 208.76 26.3198 215.33C26.9098 216.91 28.2798 218.12 29.2998 217.95L34.4497 217.08C35.3597 216.93 35.6296 215.73 35.1296 214.33C33.5896 210.07 32.7197 205.73 32.7197 201.66C32.7197 189 41.1196 183.46 51.8496 188.53C52.9296 189.04 53.7698 188.52 53.7698 187.27V180.21C53.7698 178.82 52.7498 177.11 51.5498 176.52C35.2998 168.45 22.4697 176.67 22.4697 195.74Z" fill="#3D93FA" stroke="#223893" stroke-width="1.2" stroke-linecap="round" stroke-linejoin="round"/>
<path d="M56.5904 241.78C56.4604 240.5 55.5603 239.07 54.5103 238.5C54.2603 238.37 54.0203 238.23 53.7703 238.09C49.0203 235.35 44.6402 231 41.1102 225.91C40.2602 224.68 39.0702 224.09 38.3602 224.59L34.2403 227.47C33.4403 228.03 33.5303 229.7 34.4703 231.1C39.7903 238.98 46.4903 245.72 53.7703 249.92C54.3103 250.23 54.8402 250.52 55.3602 250.8C56.5802 251.43 57.4904 250.71 57.3404 249.23L56.5904 241.78Z" fill="#80C0FF" stroke="#223893" stroke-width="1.2" stroke-linecap="round" stroke-linejoin="round"/>
<path d="M72.5204 235.66C70.5204 239.04 67.3102 240.9 63.3902 240.96C62.4402 240.97 61.9902 242 62.3902 243.37L64.6903 251.27C65.1403 252.82 66.4504 254.17 67.5304 254.19C73.7904 254.26 78.8703 251.31 81.9203 245.84C82.4503 244.89 81.9204 243.08 80.8004 241.92L75.1002 236C74.1102 234.97 73.0004 234.85 72.5104 235.67L72.5204 235.66Z" fill="#3D93FA" stroke="#223893" stroke-width="1.2" stroke-linecap="round" stroke-linejoin="round"/>
<path d="M61.3096 185.699L59.7295 191.619C59.4495 192.659 60.0295 194.219 61.0495 195.229C69.0895 203.279 74.8196 215.499 74.8196 225.959C74.8196 226.209 74.8196 226.459 74.8196 226.709C74.7896 227.909 75.5794 229.399 76.6294 230.149L82.7095 234.489C83.8995 235.339 84.9895 234.939 85.0495 233.589C85.0695 233.029 85.0896 232.449 85.0896 231.869C85.0896 216.069 76.2795 197.539 64.0095 185.569C62.8795 184.459 61.6496 184.539 61.3396 185.699H61.3096Z" fill="#80C0FF" stroke="#223893" stroke-width="1.2" stroke-linecap="round" stroke-linejoin="round"/>
<path d="M172.071 282.201C172.071 275.911 170.67 269.181 168.22 262.611C167.63 261.031 166.26 259.821 165.24 259.991L160.091 260.861C159.181 261.011 158.91 262.211 159.41 263.611C160.95 267.871 161.821 272.211 161.821 276.281C161.821 288.941 153.42 294.481 142.69 289.411C141.61 288.901 140.771 289.421 140.771 290.671V297.731C140.771 299.121 141.79 300.831 142.99 301.421C159.24 309.491 172.071 301.271 172.071 282.201Z" fill="#80C0FF" stroke="#223893" stroke-width="1.2" stroke-linecap="round" stroke-linejoin="round"/>
<path d="M137.95 236.161C138.08 237.441 138.98 238.871 140.03 239.441C140.28 239.571 140.52 239.711 140.77 239.851C145.52 242.591 149.9 246.941 153.43 252.031C154.28 253.261 155.47 253.851 156.18 253.351L160.3 250.471C161.1 249.911 161.01 248.241 160.07 246.841C154.75 238.961 148.05 232.221 140.77 228.021C140.23 227.711 139.7 227.421 139.18 227.141C137.96 226.511 137.05 227.231 137.2 228.711L137.95 236.161Z" fill="#3D93FA" stroke="#223893" stroke-width="1.2" stroke-linecap="round" stroke-linejoin="round"/>
<path d="M122.02 242.281C124.02 238.901 127.23 237.041 131.15 236.981C132.1 236.971 132.55 235.941 132.15 234.571L129.85 226.671C129.4 225.121 128.09 223.771 127.01 223.751C120.75 223.681 115.67 226.631 112.62 232.101C112.09 233.051 112.62 234.861 113.74 236.021L119.44 241.941C120.43 242.971 121.54 243.091 122.03 242.271L122.02 242.281Z" fill="#80C0FF" stroke="#223893" stroke-width="1.2" stroke-linecap="round" stroke-linejoin="round"/>
<path d="M133.23 292.242L134.81 286.322C135.09 285.282 134.51 283.722 133.49 282.712C125.45 274.662 119.72 262.442 119.72 251.982C119.72 251.732 119.72 251.482 119.72 251.232C119.75 250.032 118.96 248.542 117.91 247.792L111.83 243.452C110.64 242.602 109.55 243.002 109.49 244.352C109.47 244.912 109.45 245.492 109.45 246.072C109.45 261.872 118.26 280.402 130.53 292.372C131.66 293.482 132.89 293.402 133.2 292.242H133.23Z" fill="#3D93FA" stroke="#223893" stroke-width="1.2" stroke-linecap="round" stroke-linejoin="round"/>
<path d="M68.72 288.79L38.8201 271.53C36.4801 270.18 34.5801 266.55 34.5801 263.43C34.5801 260.31 36.4801 258.87 38.8201 260.22L68.72 277.48C71.06 278.83 72.96 282.46 72.96 285.58C72.96 288.7 71.06 290.14 68.72 288.79Z" fill="#80C0FF" stroke="#223893" stroke-width="1.2" stroke-linecap="round" stroke-linejoin="round"/>
<path d="M76.6599 312.72L30.8699 286.29C28.5299 284.94 26.6299 281.31 26.6299 278.19C26.6299 275.07 28.5299 273.63 30.8699 274.98L76.6599 301.41C78.9999 302.76 80.8999 306.39 80.8999 309.51C80.8999 312.63 78.9999 314.07 76.6599 312.72Z" fill="#3D93FA" stroke="#223893" stroke-width="1.2" stroke-linecap="round" stroke-linejoin="round"/>
<path d="M60.6497 322.829L46.8796 314.879C44.5396 313.529 42.6396 309.899 42.6396 306.779C42.6396 303.659 44.5396 302.219 46.8796 303.569L60.6497 311.519C62.9897 312.869 64.8896 316.499 64.8896 319.619C64.8896 322.739 62.9897 324.179 60.6497 322.829Z" fill="#80C0FF" stroke="#223893" stroke-width="1.2" stroke-linecap="round" stroke-linejoin="round"/>
<path d="M160.32 341.941L121.219 319.361C118.919 318.031 117.06 314.481 117.06 311.411C117.06 308.351 118.919 306.941 121.219 308.271L160.32 330.851C162.62 332.181 164.479 335.731 164.479 338.801C164.479 341.861 162.62 343.271 160.32 341.941Z" fill="#80C0FF" stroke="#223893" stroke-width="1.2" stroke-linecap="round" stroke-linejoin="round"/>
<path d="M150.439 355.21L131.099 344.04C128.799 342.71 126.939 339.16 126.939 336.09C126.939 333.03 128.799 331.62 131.099 332.95L150.439 344.12C152.739 345.45 154.599 349 154.599 352.07C154.599 355.13 152.739 356.54 150.439 355.21Z" fill="#3D93FA" stroke="#223893" stroke-width="1.2" stroke-linecap="round" stroke-linejoin="round"/>
<path d="M155.6 377.17L125.94 360.05C123.64 358.72 121.78 355.17 121.78 352.1C121.78 349.04 123.64 347.63 125.94 348.96L155.6 366.08C157.9 367.41 159.76 370.96 159.76 374.03C159.76 377.09 157.9 378.5 155.6 377.17Z" fill="#80C0FF" stroke="#223893" stroke-width="1.2" stroke-linecap="round" stroke-linejoin="round"/>
<path d="M231.6 300.769C231.6 300.769 254.78 262.649 273.13 287.869C291.48 313.089 318.29 291.179 328.91 266.749C338.21 245.369 347.79 212.189 370.38 199.389V273.189L231.6 353.319V300.769Z" fill="#3D93FA" stroke="#223893" stroke-width="1.2" stroke-linecap="round" stroke-linejoin="round"/>
<path d="M231.6 342.519C231.6 342.519 255.51 327.429 269.51 282.239C283.52 237.049 305.97 205.789 332.78 226.129C349.53 238.839 360.19 240.589 370.38 234.759V273.199L231.6 353.329V342.529V342.519Z" fill="#80C0FF" stroke="#223893" stroke-width="1.2" stroke-linecap="round" stroke-linejoin="round"/>
<path d="M231.6 254.328V363.308" stroke="#223893" stroke-width="1.2" stroke-miterlimit="10" stroke-linecap="round"/>
<path d="M237.969 377.619L225.229 384.978C223.319 386.078 221.77 384.909 221.77 382.359C221.77 379.799 223.319 376.838 225.229 375.728L237.969 368.369C239.879 367.269 241.429 368.438 241.429 370.988C241.429 373.548 239.879 376.509 237.969 377.619Z" fill="#80C0FF" stroke="#223893" stroke-width="1.2" stroke-linecap="round" stroke-linejoin="round"/>
<path d="M278.09 227.488V336.468" stroke="#223893" stroke-width="1.2" stroke-miterlimit="10" stroke-linecap="round"/>
<path d="M284.46 350.779L271.72 358.139C269.81 359.239 268.26 358.069 268.26 355.519C268.26 352.959 269.81 349.999 271.72 348.889L284.46 341.529C286.37 340.429 287.92 341.599 287.92 344.149C287.92 346.709 286.37 349.669 284.46 350.779Z" fill="#3D93FA" stroke="#223893" stroke-width="1.2" stroke-linecap="round" stroke-linejoin="round"/>
<path d="M324.58 200.648V309.628" stroke="#223893" stroke-width="1.2" stroke-miterlimit="10" stroke-linecap="round"/>
<path d="M330.95 323.939L318.21 331.299C316.3 332.399 314.75 331.229 314.75 328.679C314.75 326.119 316.3 323.159 318.21 322.049L330.95 314.689C332.86 313.589 334.41 314.759 334.41 317.309C334.41 319.869 332.86 322.829 330.95 323.939Z" fill="#80C0FF" stroke="#223893" stroke-width="1.2" stroke-linecap="round" stroke-linejoin="round"/>
<path d="M370.379 283.179V174.199" stroke="#223893" stroke-width="1.2" stroke-miterlimit="10" stroke-linecap="round"/>
<path d="M377.429 297.099L364.689 304.459C362.779 305.559 361.229 304.389 361.229 301.839C361.229 299.279 362.779 296.319 364.689 295.209L377.429 287.849C379.339 286.749 380.889 287.919 380.889 290.469C380.889 293.029 379.339 295.989 377.429 297.099Z" fill="#3D93FA" stroke="#223893" stroke-width="1.2" stroke-linecap="round" stroke-linejoin="round"/>
<path d="M278.65 180.99L268.42 175.08" stroke="#223893" stroke-width="1.2" stroke-linecap="round" stroke-linejoin="round"/>
<path d="M284.81 177.441L274.58 171.531" stroke="#223893" stroke-width="1.2" stroke-linecap="round" stroke-linejoin="round"/>
<path d="M290.96 173.891L280.73 167.98" stroke="#223893" stroke-width="1.2" stroke-linecap="round" stroke-linejoin="round"/>
<path d="M297.12 170.33L286.88 164.42" stroke="#223893" stroke-width="1.2" stroke-linecap="round" stroke-linejoin="round"/>
<path d="M303.27 166.781L293.04 160.871" stroke="#223893" stroke-width="1.2" stroke-linecap="round" stroke-linejoin="round"/>
<path d="M309.429 163.23L299.189 157.32" stroke="#223893" stroke-width="1.2" stroke-linecap="round" stroke-linejoin="round"/>
<path d="M107.22 160.871L96.9902 166.781" stroke="#223893" stroke-width="1.2" stroke-linecap="round" stroke-linejoin="round"/>
<path d="M113.381 164.422L103.141 170.332" stroke="#223893" stroke-width="1.2" stroke-linecap="round" stroke-linejoin="round"/>
<path d="M119.531 167.98L109.301 173.891" stroke="#223893" stroke-width="1.2" stroke-linecap="round" stroke-linejoin="round"/>
<path d="M125.68 171.531L115.45 177.441" stroke="#223893" stroke-width="1.2" stroke-linecap="round" stroke-linejoin="round"/>
<path d="M131.841 175.082L121.61 180.992" stroke="#223893" stroke-width="1.2" stroke-linecap="round" stroke-linejoin="round"/>
<path d="M137.99 178.641L127.76 184.551" stroke="#223893" stroke-width="1.2" stroke-linecap="round" stroke-linejoin="round"/>
<path d="M273 55.3711L262.77 61.281" stroke="#223893" stroke-width="1.2" stroke-linecap="round" stroke-linejoin="round"/>
<path d="M279.16 58.9316L268.92 64.8417" stroke="#223893" stroke-width="1.2" stroke-linecap="round" stroke-linejoin="round"/>
<path d="M285.31 62.4805L275.08 68.3905" stroke="#223893" stroke-width="1.2" stroke-linecap="round" stroke-linejoin="round"/>
<path d="M291.459 66.0312L281.229 71.9413" stroke="#223893" stroke-width="1.2" stroke-linecap="round" stroke-linejoin="round"/>
<path d="M297.62 69.5898L287.39 75.4999" stroke="#223893" stroke-width="1.2" stroke-linecap="round" stroke-linejoin="round"/>
<path d="M303.769 73.1406L293.539 79.0505" stroke="#223893" stroke-width="1.2" stroke-linecap="round" stroke-linejoin="round"/>
<path d="M105.18 80.0897L94.9502 74.1797" stroke="#223893" stroke-width="1.2" stroke-linecap="round" stroke-linejoin="round"/>
<path d="M111.34 76.5388L101.1 70.6289" stroke="#223893" stroke-width="1.2" stroke-linecap="round" stroke-linejoin="round"/>
<path d="M117.49 72.9901L107.26 67.0801" stroke="#223893" stroke-width="1.2" stroke-linecap="round" stroke-linejoin="round"/>
<path d="M123.65 69.4294L113.41 63.5195" stroke="#223893" stroke-width="1.2" stroke-linecap="round" stroke-linejoin="round"/>
<path d="M129.8 65.8788L119.57 59.9688" stroke="#223893" stroke-width="1.2" stroke-linecap="round" stroke-linejoin="round"/>
<path d="M135.951 62.33L125.721 56.4199" stroke="#223893" stroke-width="1.2" stroke-linecap="round" stroke-linejoin="round"/>
<path d="M195.02 149.41L251.82 64.9297L159.92 68.2997L195.02 149.41Z" stroke="#223893" stroke-width="1.2" stroke-linecap="round" stroke-linejoin="round"/>
<path d="M228.84 124.439C228.84 125.079 228.45 125.699 227.65 126.159L198.2 143.159C196.44 144.179 193.37 144.049 191.34 142.879L162.88 126.449C161.84 125.849 161.27 125.089 161.2 124.359V124.089C161.25 123.479 161.64 122.919 162.39 122.489L191.84 105.489C193.6 104.469 196.67 104.599 198.7 105.769L227.16 122.199C228.27 122.839 228.84 123.659 228.84 124.439Z" fill="white" stroke="#223893" stroke-width="1.2" stroke-linecap="round" stroke-linejoin="round"/>
<path d="M228.84 124.44V165.87C228.84 166.51 228.45 167.13 227.65 167.59L198.2 184.59C196.44 185.61 193.37 185.48 191.34 184.31L162.88 167.87C161.84 167.27 161.27 166.51 161.2 165.78V124.35C161.27 125.08 161.83 125.84 162.88 126.44L191.34 142.87C193.37 144.04 196.44 144.17 198.2 143.15L227.65 126.15C228.44 125.69 228.84 125.07 228.84 124.43V124.44Z" fill="#E0E8F7" stroke="#223893" stroke-width="1.2" stroke-linecap="round" stroke-linejoin="round"/>
<path d="M188.071 153.25V171.14C188.071 171.62 187.83 172.02 187.47 172.25L187.35 172.32C186.97 172.52 186.501 172.53 186.081 172.29L170.18 163.11C169.26 162.58 168.69 161.59 168.69 160.52V142.64C168.69 142.17 168.92 141.78 169.26 141.55L169.46 141.44C169.83 141.27 170.28 141.26 170.69 141.49L173.96 143.38L174.64 143.77L186.6 150.67C187.53 151.2 188.091 152.19 188.091 153.26L188.071 153.25Z" fill="#80C0FF" stroke="#223893" stroke-width="1.2" stroke-linecap="round" stroke-linejoin="round"/>
<path d="M188.07 153.25V166.53L176.11 159.63C175.19 159.1 174.62 158.11 174.62 157.04V143.76L186.58 150.66C187.51 151.19 188.07 152.18 188.07 153.25Z" fill="#3D93FA" stroke="#223893" stroke-width="1.2" stroke-linecap="round" stroke-linejoin="round"/>
<path d="M201.97 153.25V171.14C201.97 171.62 202.21 172.02 202.57 172.25L202.69 172.32C203.07 172.52 203.54 172.53 203.96 172.29L219.86 163.11C220.78 162.58 221.35 161.59 221.35 160.52V142.64C221.35 142.17 221.12 141.78 220.78 141.55L220.58 141.44C220.21 141.27 219.76 141.26 219.35 141.49L216.08 143.38L215.4 143.77L203.44 150.67C202.51 151.2 201.95 152.19 201.95 153.26L201.97 153.25Z" fill="#80C0FF" stroke="#223893" stroke-width="1.2" stroke-linecap="round" stroke-linejoin="round"/>
<path d="M201.971 153.25V166.53L213.931 159.63C214.851 159.1 215.421 158.11 215.421 157.04V143.76L203.461 150.66C202.531 151.19 201.971 152.18 201.971 153.25Z" fill="#3D93FA" stroke="#223893" stroke-width="1.2" stroke-linecap="round" stroke-linejoin="round"/>
<path d="M274.17 54.3303C274.17 54.7603 273.91 55.1703 273.38 55.4703L253.84 66.7504C252.67 67.4204 250.64 67.3403 249.29 66.5603L230.4 55.6603C229.71 55.2603 229.33 54.7604 229.29 54.2704V54.0903C229.32 53.6903 229.58 53.3103 230.08 53.0303L249.62 41.7504C250.79 41.0804 252.82 41.1603 254.17 41.9403L273.06 52.8403C273.8 53.2703 274.18 53.8103 274.18 54.3303H274.17Z" fill="white" stroke="#223893" stroke-width="1.2" stroke-linecap="round" stroke-linejoin="round"/>
<path d="M274.17 54.3297V81.8197C274.17 82.2497 273.91 82.6597 273.38 82.9597L253.84 94.2397C252.67 94.9097 250.64 94.8297 249.29 94.0497L230.4 83.1398C229.71 82.7398 229.33 82.2398 229.29 81.7498V54.2598C229.34 54.7398 229.71 55.2498 230.4 55.6498L249.29 66.5497C250.64 67.3297 252.67 67.4097 253.84 66.7397L273.38 55.4597C273.91 55.1597 274.17 54.7497 274.17 54.3197V54.3297Z" fill="#E0E8F7" stroke="#223893" stroke-width="1.2" stroke-linecap="round" stroke-linejoin="round"/>
<path d="M247.11 73.45V85.3199C247.11 85.6399 246.95 85.8999 246.71 86.0599L246.63 86.11C246.38 86.24 246.07 86.25 245.79 86.09L235.24 80C234.63 79.65 234.25 78.9899 234.25 78.2799V66.4099C234.25 66.0999 234.4 65.8399 234.63 65.6899L234.76 65.61C235.01 65.49 235.31 65.49 235.57 65.64L237.74 66.89L238.19 67.15L246.12 71.73C246.74 72.08 247.11 72.74 247.11 73.45Z" fill="#80C0FF" stroke="#223893" stroke-width="1.2" stroke-linecap="round" stroke-linejoin="round"/>
<path d="M256.34 73.45V85.3199C256.34 85.6399 256.5 85.8999 256.74 86.0599L256.82 86.11C257.07 86.24 257.38 86.25 257.66 86.09L268.21 80C268.82 79.65 269.2 78.9899 269.2 78.2799V66.4099C269.2 66.0999 269.05 65.8399 268.82 65.6899L268.69 65.61C268.44 65.49 268.14 65.49 267.88 65.64L265.71 66.89L265.26 67.15L257.33 71.73C256.71 72.08 256.34 72.74 256.34 73.45Z" fill="#3D93FA" stroke="#223893" stroke-width="1.2" stroke-linecap="round" stroke-linejoin="round"/>
<path d="M185.82 52.4693C185.82 52.9493 185.53 53.3994 184.94 53.7394L163.17 66.3093C161.87 67.0593 159.6 66.9693 158.1 66.0993L137.06 53.9493C136.29 53.5093 135.87 52.9394 135.82 52.3994V52.1993C135.85 51.7493 136.14 51.3294 136.7 51.0094L158.47 38.4393C159.77 37.6893 162.04 37.7794 163.54 38.6494L184.58 50.7993C185.4 51.2793 185.82 51.8793 185.82 52.4593V52.4693Z" fill="white" stroke="#223893" stroke-width="1.2" stroke-linecap="round" stroke-linejoin="round"/>
<path d="M185.82 52.4684V83.0984C185.82 83.5784 185.53 84.0284 184.94 84.3684L163.17 96.9384C161.87 97.6884 159.6 97.5984 158.1 96.7284L137.06 84.5784C136.29 84.1384 135.87 83.5683 135.82 83.0283V52.3984C135.87 52.9384 136.29 53.4984 137.06 53.9484L158.1 66.0984C159.6 66.9684 161.87 67.0583 163.17 66.3083L184.94 53.7384C185.53 53.3984 185.82 52.9484 185.82 52.4684Z" fill="#E0E8F7" stroke="#223893" stroke-width="1.2" stroke-linecap="round" stroke-linejoin="round"/>
<path d="M155.67 73.77V86.9999C155.67 87.3599 155.49 87.6499 155.23 87.8199L155.14 87.8699C154.86 88.0199 154.51 88.0299 154.2 87.8499L142.44 81.0699C141.76 80.6799 141.34 79.95 141.34 79.15V65.9299C141.34 65.5799 141.51 65.2899 141.76 65.1199L141.91 65.0399C142.19 64.9099 142.52 64.8999 142.82 65.0799L145.24 66.4799L145.74 66.77L154.58 71.8699C155.27 72.2599 155.68 72.9899 155.68 73.7799L155.67 73.77Z" fill="#80C0FF" stroke="#223893" stroke-width="1.2" stroke-linecap="round" stroke-linejoin="round"/>
<path d="M165.95 73.77V86.9999C165.95 87.3599 166.13 87.6499 166.39 87.8199L166.48 87.8699C166.76 88.0199 167.11 88.0299 167.42 87.8499L179.18 81.0699C179.86 80.6799 180.281 79.95 180.281 79.15V65.9299C180.281 65.5799 180.11 65.2899 179.86 65.1199L179.71 65.0399C179.43 64.9099 179.101 64.8999 178.801 65.0799L176.38 66.4799L175.88 66.77L167.041 71.8699C166.351 72.2599 165.94 72.9899 165.94 73.7799L165.95 73.77Z" fill="#3D93FA" stroke="#223893" stroke-width="1.2" stroke-linecap="round" stroke-linejoin="round"/>
<path d="M380.34 119.491C380.34 120.141 380.22 120.79 379.98 121.43C379.36 123.05 377.97 124.591 375.78 125.851C369.7 129.361 359.84 129.361 353.76 125.851C351.58 124.591 350.18 123.05 349.56 121.43C349.32 120.79 349.2 120.141 349.2 119.491C349.2 117.191 350.72 114.891 353.76 113.131C359.84 109.621 369.7 109.621 375.78 113.131C378.82 114.891 380.34 117.191 380.34 119.491Z" fill="#80C0FF" stroke="#223893" stroke-width="1.2" stroke-miterlimit="10" stroke-linecap="round"/>
<path d="M373.42 105.49C373.42 100.71 369.55 96.8398 364.77 96.8398C359.99 96.8398 356.12 100.71 356.12 105.49V119.49C356.12 119.73 356.19 119.98 356.32 120.22C356.66 120.83 357.44 121.41 358.65 121.88C362.03 123.2 367.5 123.2 370.88 121.88C372.09 121.41 372.87 120.83 373.21 120.22C373.34 119.98 373.41 119.74 373.41 119.49V105.49H373.42Z" fill="white" stroke="#223893" stroke-width="1.2" stroke-linecap="round" stroke-linejoin="round"/>
<path d="M364.771 105.58V122.88" stroke="#223893" stroke-width="1.2" stroke-linecap="round" stroke-linejoin="round"/>
<path d="M215.64 216.7C215.64 217.35 215.52 218 215.28 218.64C214.66 220.26 213.27 221.8 211.08 223.06C205 226.57 195.14 226.57 189.06 223.06C186.88 221.8 185.48 220.26 184.86 218.64C184.62 218 184.5 217.35 184.5 216.7C184.5 214.4 186.02 212.1 189.06 210.34C195.14 206.83 205 206.83 211.08 210.34C214.12 212.1 215.64 214.4 215.64 216.7Z" fill="#80C0FF" stroke="#223893" stroke-width="1.2" stroke-miterlimit="10" stroke-linecap="round"/>
<path d="M208.71 202.689C208.71 197.909 204.84 194.039 200.06 194.039C195.28 194.039 191.41 197.909 191.41 202.689V216.689C191.41 216.929 191.48 217.179 191.61 217.419C191.95 218.029 192.73 218.609 193.94 219.079C197.32 220.399 202.79 220.399 206.17 219.079C207.38 218.609 208.16 218.029 208.5 217.419C208.63 217.179 208.7 216.939 208.7 216.689V202.689H208.71Z" fill="white" stroke="#223893" stroke-width="1.2" stroke-linecap="round" stroke-linejoin="round"/>
<path d="M200.061 202.779V220.079" stroke="#223893" stroke-width="1.2" stroke-linecap="round" stroke-linejoin="round"/>
<path d="M215.64 23.6489C215.64 24.2989 215.52 24.9488 215.28 25.5888C214.66 27.2088 213.27 28.7488 211.08 30.0088C205 33.5188 195.14 33.5188 189.06 30.0088C186.88 28.7488 185.48 27.2088 184.86 25.5888C184.62 24.9488 184.5 24.2989 184.5 23.6489C184.5 21.3489 186.02 19.0487 189.06 17.2887C195.14 13.7787 205 13.7787 211.08 17.2887C214.12 19.0487 215.64 21.3489 215.64 23.6489Z" fill="#80C0FF" stroke="#223893" stroke-width="1.2" stroke-miterlimit="10" stroke-linecap="round"/>
<path d="M208.71 9.65002C208.71 4.87002 204.84 1 200.06 1C195.28 1 191.41 4.87002 191.41 9.65002V23.65C191.41 23.89 191.48 24.14 191.61 24.38C191.95 24.99 192.73 25.5699 193.94 26.0399C197.32 27.3599 202.79 27.3599 206.17 26.0399C207.38 25.5699 208.16 24.99 208.5 24.38C208.63 24.14 208.7 23.9 208.7 23.65V9.65002H208.71Z" fill="white" stroke="#223893" stroke-width="1.2" stroke-linecap="round" stroke-linejoin="round"/>
<path d="M200.061 9.74023V27.0302" stroke="#223893" stroke-width="1.2" stroke-linecap="round" stroke-linejoin="round"/>
<path d="M49.2603 119.491C49.2603 120.141 49.1401 120.79 48.9001 121.43C48.2801 123.05 46.8902 124.591 44.7002 125.851C38.6202 129.361 28.7602 129.361 22.6802 125.851C20.5002 124.591 19.1002 123.05 18.4802 121.43C18.2402 120.79 18.1201 120.141 18.1201 119.491C18.1201 117.191 19.6402 114.891 22.6802 113.131C28.7602 109.621 38.6202 109.621 44.7002 113.131C47.7402 114.891 49.2603 117.191 49.2603 119.491Z" fill="#80C0FF" stroke="#223893" stroke-width="1.2" stroke-miterlimit="10" stroke-linecap="round"/>
<path d="M42.3401 105.49C42.3401 100.71 38.4699 96.8398 33.6899 96.8398C28.9099 96.8398 25.04 100.71 25.04 105.49V119.49C25.04 119.73 25.11 119.98 25.24 120.22C25.58 120.83 26.3601 121.41 27.5701 121.88C30.9501 123.2 36.42 123.2 39.8 121.88C41.01 121.41 41.7899 120.83 42.1299 120.22C42.2599 119.98 42.3301 119.74 42.3301 119.49V105.49H42.3401Z" fill="white" stroke="#223893" stroke-width="1.2" stroke-linecap="round" stroke-linejoin="round"/>
<path d="M33.6904 105.58V122.88" stroke="#223893" stroke-width="1.2" stroke-linecap="round" stroke-linejoin="round"/>
</svg>
